<?xml version="1.0" encoding="utf-8"?>
<!-- Generator: Adobe Illustrator 24.0.2, SVG Export Plug-In . SVG Version: 6.00 Build 0)  -->
<svg version="1.1" baseProfile="tiny" id="Layer_1" xmlns:svgjs="http://svgjs.com/svgjs"
	 xmlns="http://www.w3.org/2000/svg" xmlns:xlink="http://www.w3.org/1999/xlink" x="0px" y="0px" viewBox="0 0 40 40"
	 xml:space="preserve">
<title>Exported from Streamline App (https://app.streamlineicons.com)</title>
<g>
	<path fill="white" d="M22.5,10h-5c-0.7,0-1.2,0.6-1.2,1.2s0.6,1.2,1.2,1.2h5c0.7,0,1.2-0.6,1.2-1.2S23.2,10,22.5,10z"/>
	<path fill="white" d="M31.2,15v1.2c0,0.7,0.6,1.2,1.2,1.2c0.6,0,1.2-0.6,1.2-1.2V15h5c0.7,0,1.2-0.6,1.2-1.2s-0.6-1.2-1.2-1.2
		h-9.9c-0.6-3.8-3.6-6.8-7.4-7.4v-4C21.2,0.6,20.7,0,20,0s-1.2,0.6-1.2,1.2V5C15,5.6,12,8.6,11.4,12.4H1.2C0.5,12.4,0,13,0,13.6
		S0.6,15,1.2,15h5v1.2c0,0.7,0.6,1.2,1.2,1.2s1.2-0.6,1.2-1.2V15h2.6c0.6,4.2,4.3,7.5,8.7,7.5s8-3.3,8.7-7.5H31.2z M20,20
		c-3.4,0-6.2-2.8-6.2-6.3s2.8-6.2,6.2-6.2s6.2,2.8,6.2,6.2S23.4,20,20,20z"/>
	<path fill="white" d="M9.3,21.4c-0.6-0.3-1.4,0-1.7,0.6L0.1,38.2c-0.3,0.6,0,1.4,0.6,1.7C0.9,40,1.1,40,1.2,40
		c0.5,0,0.9-0.3,1.1-0.7L9.9,23C10.2,22.4,9.9,21.7,9.3,21.4z"/>
	<path fill="white" d="M32.4,22c-0.3-0.6-1-0.9-1.7-0.6c-0.6,0.3-0.9,1-0.6,1.7l7.5,16.2c0.2,0.5,0.7,0.7,1.1,0.7
		c0.2,0,0.4,0,0.5-0.1c0.6-0.3,0.9-1,0.6-1.7L32.4,22z"/>
	<path fill="white" d="M20,32.5c-0.7,0-1.2,0.6-1.2,1.2v5c0,0.7,0.6,1.2,1.2,1.2s1.2-0.6,1.2-1.2v-5C21.2,33.1,20.7,32.5,20,32.5z
		"/>
	<path fill="white" d="M20,23.8c-0.7,0-1.2,0.6-1.2,1.2v3.8c0,0.7,0.6,1.2,1.2,1.2s1.2-0.6,1.2-1.2V25
		C21.2,24.3,20.7,23.8,20,23.8z"/>
</g>
</svg>
