<?xml version="1.0" encoding="utf-8"?>
<!-- Generator: Adobe Illustrator 24.0.1, SVG Export Plug-In . SVG Version: 6.00 Build 0)  -->
<svg version="1.1" id="Layer_1" xmlns:svgjs="http://svgjs.com/svgjs"
	 xmlns="http://www.w3.org/2000/svg" xmlns:xlink="http://www.w3.org/1999/xlink" x="0px" y="0px" viewBox="0 0 40 40"
	 style="enable-background:new 0 0 40 40;" xml:space="preserve">
<title>Exported from Streamline App (https://app.streamlineicons.com)</title>
<g>
	<path d="M26.2,30c-0.7,0-1.2,0.6-1.2,1.2v7.5c0,0.7,0.6,1.2,1.2,1.2s1.2-0.6,1.2-1.2v-7.5C27.5,30.6,26.9,30,26.2,30z"/>
	<path d="M26.2,15c-0.7,0-1.2,0.6-1.2,1.2v7.5c0,0.7,0.6,1.2,1.2,1.2s1.2-0.6,1.2-1.2v-7.5C27.5,15.6,26.9,15,26.2,15z"/>
	<path d="M38.8,30h-6.2v-2.5h3.8c0.7,0,1.2-0.6,1.2-1.2S36.9,25,36.2,25h-3.8v-2.5h6.2c0.7,0,1.2-0.6,1.2-1.2S39.4,20,38.8,20h-6.2
		v-3.8c0-9-7.3-16.2-16.2-16.2C7.3,0,0,7.3,0,16.3c0,9,7.3,16.2,16.2,16.2H20v6.2c0,0.7,0.6,1.2,1.2,1.2s1.2-0.6,1.2-1.2V16.3
		c0-3.4-2.8-6.2-6.2-6.2S10,12.8,10,16.3s2.8,6.2,6.2,6.2H20V30h-3.8C8.7,30,2.5,23.9,2.5,16.3c0-7.6,6.2-13.8,13.8-13.8
		C23.8,2.5,30,8.7,30,16.3v5v10v7.5c0,0.7,0.6,1.2,1.2,1.2s1.2-0.6,1.2-1.2v-6.2h6.2c0.7,0,1.2-0.6,1.2-1.2S39.4,30,38.8,30z
		 M16.2,20c-2.1,0-3.8-1.7-3.8-3.8s1.7-3.8,3.8-3.8s3.8,1.7,3.8,3.8V20H16.2z"/>
	<path d="M16.3,5C16.3,5,16.3,5,16.3,5C15.6,5,15,5.6,15,6.3c0,0.7,0.6,1.2,1.2,1.2c0,0,0,0,0,0c2.3,0,4.6,0.9,6.2,2.6
		c0.2,0.2,0.6,0.4,0.9,0.4c0.3,0,0.6-0.1,0.9-0.4c0.5-0.5,0.5-1.3,0-1.8C22.1,6.2,19.2,5,16.3,5z"/>
	<path d="M10.1,8.3c-0.5-0.5-1.3-0.5-1.8,0c-2.1,2.1-3.3,5-3.3,8c0,0.7,0.6,1.2,1.2,1.2c0,0,0,0,0,0c0.7,0,1.2-0.6,1.2-1.3
		c0-2.3,0.9-4.6,2.6-6.2C10.5,9.6,10.6,8.8,10.1,8.3z"/>
	<path d="M8.3,24.2c2.1,2.1,5,3.3,7.9,3.3c0.7,0,1.3-0.6,1.3-1.3c0-0.7-0.6-1.2-1.2-1.2c0,0,0,0,0,0c-2.3,0-4.5-0.9-6.2-2.6
		c-0.5-0.5-1.3-0.5-1.8,0C7.8,22.9,7.8,23.7,8.3,24.2z"/>
</g>
</svg>
