<svg xmlns="http://www.w3.org/2000/svg"
 viewBox="0 0 512 512"
 width="40" height="40" >

<path d="M 4.5,19H6 " stroke="#000000" fill="none" stroke-width="1.5" stroke-linecap="round" stroke-linejoin="round">
</path>
<path d="M 9,19h1.5 " stroke="#000000" fill="none" stroke-width="1.5" stroke-linecap="round" stroke-linejoin="round"></path>
<path d="M 4.5,16H6 " stroke="#000000" fill="none" stroke-width="1.5" stroke-linecap="round" stroke-linejoin="round">
</path>
<path d="M 9,16h1.5 " stroke="#000000" fill="none" stroke-width="1.5" stroke-linecap="round" stroke-linejoin="round"></path>
<path d="M 13.5,19H15 " stroke="#000000" fill="none" stroke-width="1.5" stroke-linecap="round" stroke-linejoin="round"></path>
<path d="M 18,19h1.5 " stroke="#000000" fill="none" stroke-width="1.5" stroke-linecap="round" stroke-linejoin="round"></path>
<path d="M 13.5,16H15 " stroke="#000000" fill="none" stroke-width="1.5" stroke-linecap="round" stroke-linejoin="round"></path>
<path d="M 18,16h1.5 " stroke="#000000" fill="none" stroke-width="1.5" stroke-linecap="round" stroke-linejoin="round"></path>
<path d="M 12,1 c3.314,0,6,2.686,6,6s-2.686,6-6,6s-6-2.686-6-6S8.686,1,12,1z " stroke="#000000" fill="none" stroke-width="1.5" stroke-linecap="round" stroke-linejoin="round"></path>
<path d="M 12,4v6 " stroke="#000000" fill="none" stroke-width="1.5" stroke-linecap="round" stroke-linejoin="round"></path>
<path d="M 9,7h6 " stroke="#000000" fill="none" stroke-width="1.5" stroke-linecap="round" stroke-linejoin="round"></path>
<path d="M 3.562,9.456L0.75,11.519V22.75h22.5V11.519 l-2.813-2.063" stroke="#000000" fill="none" stroke-width="1.5" stroke-linecap="round" stroke-linejoin="round">
</path>

</svg>