<svg height="512pt" viewBox="-85 0 511 512" width="512pt" xmlns="http://www.w3.org/2000/svg"><path d="m327.183594 80.335938h-60.109375v-65.070313c0-8.429687-6.835938-15.265625-15.265625-15.265625h-160.667969c-8.429687 0-15.265625 6.835938-15.265625 15.265625v65.070313h-60.109375c-8.429687 0-15.265625 6.832031-15.265625 15.265624v401.132813c0 8.429687 6.835938 15.265625 15.265625 15.265625h311.417969c8.429687 0 15.265625-6.835938 15.265625-15.265625v-401.132813c0-8.433593-6.835938-15.265624-15.265625-15.265624zm-90.640625-49.804688v130.136719h-130.136719v-130.136719zm-102.261719 450.9375v-74.386719h74.386719v74.386719zm177.636719 0h-72.71875v-89.652344c0-8.429687-6.835938-15.265625-15.265625-15.265625h-104.917969c-8.433594 0-15.265625 6.835938-15.265625 15.265625v89.652344h-72.71875v-370.601562h44.84375v65.066406c0 8.429687 6.835938 15.265625 15.265625 15.265625h160.667969c8.429687 0 15.265625-6.835938 15.265625-15.265625v-65.066406h44.84375zm0 0"/><path d="m124.660156 95.601562c0 8.429688 6.835938 15.265626 15.265625 15.265626h16.28125v16.28125c0 8.429687 6.835938 15.265624 15.265625 15.265624 8.433594 0 15.265625-6.835937 15.265625-15.265624v-16.28125h16.285157c8.429687 0 15.265624-6.835938 15.265624-15.265626 0-8.433593-6.835937-15.265624-15.265624-15.265624h-16.285157v-16.285157c0-8.429687-6.832031-15.265625-15.265625-15.265625-8.429687 0-15.265625 6.835938-15.265625 15.265625v16.285157h-16.28125c-8.429687 0-15.265625 6.832031-15.265625 15.265624zm0 0"/><path d="m134 322.464844h-48.597656c-8.433594 0-15.265625 6.835937-15.265625 15.265625 0 8.433593 6.832031 15.265625 15.265625 15.265625h48.597656c8.429688 0 15.265625-6.832032 15.265625-15.265625 0-8.429688-6.835937-15.265625-15.265625-15.265625zm0 0"/><path d="m134 266.148438h-48.597656c-8.433594 0-15.265625 6.835937-15.265625 15.265624 0 8.433594 6.832031 15.265626 15.265625 15.265626h48.597656c8.429688 0 15.265625-6.832032 15.265625-15.265626 0-8.429687-6.835937-15.265624-15.265625-15.265624zm0 0"/><path d="m134 209.832031h-48.597656c-8.433594 0-15.265625 6.835938-15.265625 15.265625 0 8.429688 6.832031 15.265625 15.265625 15.265625h48.597656c8.429688 0 15.265625-6.835937 15.265625-15.265625 0-8.429687-6.835937-15.265625-15.265625-15.265625zm0 0"/><path d="m257.546875 322.28125h-48.597656c-8.429688 0-15.265625 6.835938-15.265625 15.265625s6.835937 15.265625 15.265625 15.265625h48.597656c8.429687 0 15.265625-6.835938 15.265625-15.265625s-6.835938-15.265625-15.265625-15.265625zm0 0"/><path d="m257.546875 265.964844h-48.597656c-8.429688 0-15.265625 6.832031-15.265625 15.265625 0 8.429687 6.835937 15.265625 15.265625 15.265625h48.597656c8.429687 0 15.265625-6.835938 15.265625-15.265625 0-8.433594-6.835938-15.265625-15.265625-15.265625zm0 0"/><path d="m257.546875 209.648438h-48.597656c-8.429688 0-15.265625 6.832031-15.265625 15.265624 0 8.429688 6.835937 15.265626 15.265625 15.265626h48.597656c8.429687 0 15.265625-6.835938 15.265625-15.265626 0-8.433593-6.835938-15.265624-15.265625-15.265624zm0 0"/></svg>