<?xml version="1.0" encoding="utf-8"?>
<!-- Generator: Adobe Illustrator 24.0.2, SVG Export Plug-In . SVG Version: 6.00 Build 0)  -->
<svg version="1.1" id="Layer_1" xmlns:svgjs="http://svgjs.com/svgjs"
	 xmlns="http://www.w3.org/2000/svg" xmlns:xlink="http://www.w3.org/1999/xlink" x="0px" y="0px" viewBox="0 0 40 40"
	 style="enable-background:new 0 0 40 40;" xml:space="preserve">
<title>Exported from Streamline App (https://app.streamlineicons.com)</title>
<g>
	<path fill="white" class="st0" d="M10,30.4H7.5c-0.7,0-1.2,0.6-1.2,1.2s0.6,1.2,1.2,1.2H10c0.7,0,1.2-0.6,1.2-1.2S10.7,30.4,10,30.4z"/>
	<path fill="white" class="st0" d="M17.5,30.4H15c-0.7,0-1.2,0.6-1.2,1.2s0.6,1.2,1.2,1.2h2.5c0.7,0,1.2-0.6,1.2-1.2S18.2,30.4,17.5,30.4z"/>
	<path fill="white" class="st0" d="M6.2,26.7c0,0.7,0.6,1.2,1.2,1.2H10c0.7,0,1.2-0.6,1.2-1.2s-0.6-1.2-1.2-1.2H7.5C6.8,25.4,6.2,26,6.2,26.7z"/>
	<path fill="white" class="st0" d="M17.5,25.4H15c-0.7,0-1.2,0.6-1.2,1.2s0.6,1.2,1.2,1.2h2.5c0.7,0,1.2-0.6,1.2-1.2S18.2,25.4,17.5,25.4z"/>
	<path fill="white" class="st0" d="M25,30.4h-2.5c-0.7,0-1.2,0.6-1.2,1.2s0.6,1.2,1.2,1.2H25c0.7,0,1.2-0.6,1.2-1.2S25.7,30.4,25,30.4z"/>
	<path fill="white" class="st0" d="M32.5,30.4H30c-0.7,0-1.2,0.6-1.2,1.2s0.6,1.2,1.2,1.2h2.5c0.7,0,1.2-0.6,1.2-1.2S33.2,30.4,32.5,30.4z"/>
	<path fill="white" class="st0" d="M25,25.4h-2.5c-0.7,0-1.2,0.6-1.2,1.2s0.6,1.2,1.2,1.2H25c0.7,0,1.2-0.6,1.2-1.2S25.7,25.4,25,25.4z"/>
	<path fill="white" class="st0" d="M32.5,25.4H30c-0.7,0-1.2,0.6-1.2,1.2s0.6,1.2,1.2,1.2h2.5c0.7,0,1.2-0.6,1.2-1.2S33.2,25.4,32.5,25.4z"/>
	<path fill="white" class="st0" d="M20,22.9c6.2,0,11.2-5,11.2-11.2S26.2,0.4,20,0.4S8.8,5.5,8.8,11.7S13.8,22.9,20,22.9z M20,2.9
		c4.8,0,8.8,3.9,8.8,8.8s-3.9,8.7-8.8,8.7c-4.8,0-8.8-3.9-8.8-8.7S15.2,2.9,20,2.9z"/>
	<path fill="white" class="st0" d="M15,12.9h3.8v3.8c0,0.7,0.6,1.2,1.2,1.2s1.2-0.6,1.2-1.2v-3.8H25c0.7,0,1.2-0.6,1.2-1.2s-0.6-1.2-1.2-1.2h-3.8
		V6.7c0-0.7-0.6-1.2-1.2-1.2S18.8,6,18.8,6.7v3.8H15c-0.7,0-1.2,0.6-1.2,1.2S14.3,12.9,15,12.9z"/>
	<path fill="white" class="st0" d="M39.5,18.2l-4.7-3.4c-0.6-0.4-1.3-0.3-1.7,0.3s-0.3,1.3,0.3,1.7l4.2,3.1v16.8h-35V19.8l4.2-3.1
		c0.6-0.4,0.7-1.2,0.3-1.7s-1.2-0.7-1.7-0.3l-4.7,3.4c-0.3,0.2-0.5,0.6-0.5,1v18.7c0,0.7,0.6,1.2,1.2,1.2h37.5
		c0.7,0,1.2-0.6,1.2-1.2V19.2C40,18.8,39.8,18.4,39.5,18.2z"/>
</g>
</svg>
