<?xml version="1.0" encoding="utf-8"?>
<!-- Generator: Adobe Illustrator 24.0.1, SVG Export Plug-In . SVG Version: 6.00 Build 0)  -->
<svg version="1.1" id="Layer_1" xmlns:svgjs="http://svgjs.com/svgjs"
	 xmlns="http://www.w3.org/2000/svg" xmlns:xlink="http://www.w3.org/1999/xlink" x="0px" y="0px" viewBox="0 0 40 40"
	 style="enable-background:new 0 0 40 40;" xml:space="preserve">
<title>Exported from Streamline App (https://app.streamlineicons.com)</title>
<g>
	<path d="M36.2,21.3h-7.5v-2.7c0,0,0,0,0,0c-0.1-4.3-3.4-7.9-7.5-8.4V7.5h5.4c1.1,0,2.1-0.9,2.1-2.1V2.1c0-1.1-0.9-2.1-2.1-2.1H20
		c-0.7,0-1.2,0.6-1.2,1.2v5v3.8c-4.2,0.6-7.4,4.1-7.5,8.4v2.7H3.8C1.7,21.3,0,22.9,0,25v13.8C0,39.4,0.6,40,1.2,40h11.2h5h5h5h11.2
		c0.7,0,1.2-0.6,1.2-1.2V25C40,22.9,38.3,21.3,36.2,21.3z M26.2,5h-5V2.5h5V5z M2.5,25c0-0.7,0.6-1.2,1.2-1.2h7.5v13.8H2.5V25z
		 M13.8,18.5c0.1-3.4,2.8-6.1,6.2-6.1c0,0,0,0,0.1,0c0,0,0,0,0,0s0,0,0,0c0,0,0.1,0,0.1,0c3.3,0,6.1,2.7,6.1,6v19h-2.5v-5.3
		c0,0,0-0.1,0-0.1c-0.1-1.9-1.8-3.4-3.7-3.4c-2-0.1-3.6,1.4-3.8,3.4v5.3h-2.5V18.5z M18.7,37.5l0-5.2c0-0.6,0.6-1.1,1.2-1
		c0.1,0,0.1,0,0.2,0c0.6-0.1,1.1,0.4,1.2,1v5.3H18.7z M37.5,37.5h-8.8V23.8h7.5c0.7,0,1.2,0.6,1.2,1.2V37.5z"/>
	<path d="M20,22.5c2,0,3.7-1.7,3.7-3.7c0-2-1.7-3.7-3.7-3.7c-2,0-3.7,1.7-3.7,3.7C16.3,20.8,18,22.5,20,22.5z M20,17.6
		c0.7,0,1.2,0.5,1.2,1.2c0,0.7-0.5,1.2-1.2,1.2c-0.7,0-1.2-0.5-1.2-1.2C18.8,18.1,19.3,17.6,20,17.6z"/>
	<path d="M6.2,28.8h1.2c0.7,0,1.2-0.6,1.2-1.2s-0.6-1.2-1.2-1.2H6.2c-0.7,0-1.2,0.6-1.2,1.2S5.6,28.8,6.2,28.8z"/>
	<path d="M7.5,32.5H6.2c-0.7,0-1.2,0.6-1.2,1.2S5.6,35,6.2,35h1.2c0.7,0,1.2-0.6,1.2-1.2S8.2,32.5,7.5,32.5z"/>
	<path d="M33.8,26.3h-1.2c-0.7,0-1.2,0.6-1.2,1.2s0.6,1.2,1.2,1.2h1.2c0.7,0,1.2-0.6,1.2-1.2S34.4,26.3,33.8,26.3z"/>
	<path d="M33.8,32.5h-1.2c-0.7,0-1.2,0.6-1.2,1.2s0.6,1.2,1.2,1.2h1.2c0.7,0,1.2-0.6,1.2-1.2S34.4,32.5,33.8,32.5z"/>
</g>
</svg>
