<svg xmlns="http://www.w3.org/2000/svg" version="1.1" xmlns:xlink="http://www.w3.org/1999/xlink" xmlns:svgjs="http://svgjs.com/svgjs" viewBox="0 0 40 40" width="40" height="40"><title>Exported from Streamline App (https://app.streamlineicons.com)</title><g transform="matrix(1.6666666666666667,0,0,1.6666666666666667,0,0)"><path d="M 7.5,23.25H0.75V15c0-0.828,0.672-1.5,1.5-1.5H7.5 " stroke="#000000" fill="none" stroke-width="1.5" stroke-linecap="round" stroke-linejoin="round"></path><path d="M 16.5,13.5h5.25c0.828,0,1.5,0.672,1.5,1.5v8.25H16.5 " stroke="#000000" fill="none" stroke-width="1.5" stroke-linecap="round" stroke-linejoin="round"></path><path d="M 13.5,19.313C13.445,18.538,12.776,17.952,12,18c-0.776-0.048-1.445,0.538-1.5,1.313v3.937h3V19.313z " stroke="#000000" fill="none" stroke-width="1.5" stroke-linecap="round" stroke-linejoin="round"></path><path d="M 12,6.75v-6 " stroke="#000000" fill="none" stroke-width="1.5" stroke-linecap="round" stroke-linejoin="round"></path><path d="M 12,0.75h4 c0.276,0,0.5,0.224,0.5,0.5v2c0,0.276-0.224,0.5-0.5,0.5h-4l0,0V0.75L12,0.75z " stroke="#000000" fill="none" stroke-width="1.5" stroke-linecap="round" stroke-linejoin="round"></path><path d="M 12,9.816c0.81,0,1.467,0.657,1.467,1.467 S12.81,12.75,12,12.75s-1.467-0.657-1.467-1.467S11.19,9.816,12,9.816z " stroke="#000000" fill="none" stroke-width="1.5" stroke-linecap="round" stroke-linejoin="round"></path><path d="M 16.5,11.118C16.463,8.669,14.449,6.714,12,6.75 c-2.449-0.036-4.463,1.919-4.5,4.368V23.25h9V11.118z " stroke="#000000" fill="none" stroke-width="1.5" stroke-linecap="round" stroke-linejoin="round"></path><path d="M 3.75,16.5H4.5 " stroke="#000000" fill="none" stroke-width="1.5" stroke-linecap="round" stroke-linejoin="round"></path><path d="M 3.75,20.25H4.5 " stroke="#000000" fill="none" stroke-width="1.5" stroke-linecap="round" stroke-linejoin="round"></path><path d="M 19.5,16.5h0.75 " stroke="#000000" fill="none" stroke-width="1.5" stroke-linecap="round" stroke-linejoin="round"></path><path d="M 19.5,20.25h0.75" stroke="#000000" fill="none" stroke-width="1.5" stroke-linecap="round" stroke-linejoin="round"></path></g></svg>