<?xml version="1.0" encoding="utf-8"?>
<!-- Generator: Adobe Illustrator 24.0.2, SVG Export Plug-In . SVG Version: 6.00 Build 0)  -->
<svg version="1.1" id="Layer_1" xmlns:svgjs="http://svgjs.com/svgjs"
	 xmlns="http://www.w3.org/2000/svg" xmlns:xlink="http://www.w3.org/1999/xlink" x="0px" y="0px" viewBox="0 0 40 40"
	 style="enable-background:new 0 0 40 40;" xml:space="preserve">
<title>Exported from Streamline App (https://app.streamlineicons.com)</title>
<g>
	<path fill="white" class="st0" d="M39.9,33.3l-5-13.8c-0.2-0.5-0.6-0.8-1.2-0.8s-1,0.3-1.2,0.8l-5,13.8c-0.1,0.4-0.1,0.8,0.2,1.1
		c0.2,0.3,0.6,0.5,1,0.5h3.8v3.8c0,0.7,0.6,1.2,1.2,1.2s1.2-0.6,1.2-1.2V35h3.8c0.4,0,0.8-0.2,1-0.5C40,34.2,40.1,33.7,39.9,33.3z
		 M30.5,32.5l3.2-8.8l3.2,8.8H30.5z"/>
	<path fill="white" class="st0" d="M5,16.3V20c0,0.7,0.6,1.2,1.2,1.2s1.2-0.6,1.2-1.2v-3.8h3.8c0.4,0,0.8-0.2,1-0.5s0.3-0.8,0.2-1.1l-5-13.8
		C7.2,0.4,6.8,0,6.2,0S5.2,0.3,5,0.8L0,14.6c-0.1,0.4,0,0.8,0.2,1.1s0.6,0.5,1,0.5L5,16.3L5,16.3z M6.2,4.9l3.2,8.8H3L6.2,4.9z"/>
	<path fill="white" class="st0" d="M35,12.5c0.7,0,1.2-0.6,1.2-1.2c0-0.7-0.6-1.2-1.2-1.2C18.2,10,3.7,22,0.6,38.5c-0.1,0.7,0.3,1.3,1,1.5
		c0.1,0,0.2,0,0.2,0c0.6,0,1.1-0.4,1.2-1C6,23.7,19.4,12.5,35,12.5z"/>
	<path fill="white" class="st0" d="M25.3,29c-3.6,2.2-6.4,5.5-7.9,9.4c-0.2,0.6,0.1,1.4,0.7,1.6c0.1,0.1,0.3,0.1,0.4,0.1c0.5,0,1-0.3,1.2-0.8
		c1.3-3.4,3.7-6.3,6.8-8.1c0.6-0.4,0.8-1.1,0.4-1.7C26.7,28.8,25.9,28.6,25.3,29z"/>
	<path fill="white" class="st0" d="M11.8,32.8c-0.6-0.3-1.4,0-1.7,0.6c-0.8,1.6-1.4,3.3-1.7,5.1c-0.1,0.7,0.3,1.3,1,1.5c0.1,0,0.2,0,0.3,0
		c0.6,0,1.1-0.4,1.2-1c0.3-1.6,0.8-3.1,1.5-4.5C12.6,33.9,12.4,33.1,11.8,32.8z"/>
	<path fill="white" class="st0" d="M18.2,24.9c-0.5-0.5-1.2-0.6-1.8-0.1c-0.7,0.6-1.3,1.2-1.8,1.8c-0.6,0.6-1.2,1.3-1.7,2
		c-0.4,0.6-0.3,1.3,0.3,1.7c0.2,0.2,0.5,0.2,0.7,0.2c0.4,0,0.8-0.2,1-0.5c0.4-0.6,0.9-1.2,1.5-1.8c0.5-0.6,1-1.1,1.6-1.6
		C18.6,26.2,18.7,25.4,18.2,24.9z"/>
	<path fill="white" class="st0" d="M25.6,19.2c-1.6,0.6-3.2,1.3-4.6,2.2c-0.6,0.4-0.8,1.1-0.4,1.7c0.2,0.4,0.6,0.6,1.1,0.6c0.2,0,0.4-0.1,0.6-0.2
		c1.3-0.8,2.7-1.5,4.2-2c0.6-0.2,1-0.9,0.8-1.6C26.9,19.3,26.2,19,25.6,19.2z"/>
</g>
</svg>
