<svg xmlns="http://www.w3.org/2000/svg" version="1.1" xmlns:xlink="http://www.w3.org/1999/xlink" xmlns:svgjs="http://svgjs.com/svgjs" viewBox="0 0 40 40" width="40" height="40"><title>Exported from Streamline App (https://app.streamlineicons.com)</title><g transform="matrix(1.6666666666666667,0,0,1.6666666666666667,0,0)"><path d="M 6.5,0.763v22.5 " stroke="#000000" fill="none" stroke-width="1.5" stroke-linecap="round" stroke-linejoin="round"></path><path d="M 17,0.763v22.5 " stroke="#000000" fill="none" stroke-width="1.5" stroke-linecap="round" stroke-linejoin="round"></path><path d="M 2.75,4.513h18c0.414,0,0.75,0.336,0.75,0.75v3.75 c0,0.414-0.336,0.75-0.75,0.75h-18C2.336,9.763,2,9.427,2,9.013v-3.75C2,4.849,2.336,4.513,2.75,4.513z " stroke="#000000" fill="none" stroke-width="1.5" stroke-linecap="round" stroke-linejoin="round"></path><path d="M 2.75,15.013h18 c0.414,0,0.75,0.336,0.75,0.75v3.75c0,0.414-0.336,0.75-0.75,0.75h-18c-0.414,0-0.75-0.336-0.75-0.75v-3.75 C2,15.349,2.336,15.013,2.75,15.013z" stroke="#000000" fill="none" stroke-width="1.5" stroke-linecap="round" stroke-linejoin="round"></path></g></svg>