<?xml version="1.0" encoding="utf-8"?>
<!-- Generator: Adobe Illustrator 24.0.2, SVG Export Plug-In . SVG Version: 6.00 Build 0)  -->
<svg version="1.1" id="Layer_1" xmlns:svgjs="http://svgjs.com/svgjs"
	 xmlns="http://www.w3.org/2000/svg" xmlns:xlink="http://www.w3.org/1999/xlink" x="0px" y="0px" viewBox="0 0 40 40"
	 style="enable-background:new 0 0 40 40;" xml:space="preserve">
<title>Exported from Streamline App (https://app.streamlineicons.com)</title>
<path fill="white" class="st0" d="M34.6,17.5c1.4,0,2.5-1.1,2.5-2.5V8.8c0-1.4-1.1-2.5-2.5-2.5h-5v-5C29.6,0.6,29,0,28.3,0s-1.2,0.6-1.2,1.2v5
	h-15v-5c0-0.7-0.6-1.2-1.2-1.2S9.6,0.6,9.6,1.3v5h-5c-1.4,0-2.5,1.1-2.5,2.5V15c0,1.4,1.1,2.5,2.5,2.5h5v6.2h-5
	c-1.4,0-2.5,1.1-2.5,2.5v6.2c0,1.4,1.1,2.5,2.5,2.5h5v3.8c0,0.7,0.6,1.2,1.2,1.2s1.2-0.6,1.2-1.2V35h15v3.8c0,0.7,0.6,1.2,1.2,1.2
	s1.2-0.6,1.2-1.2V35h5c1.4,0,2.5-1.1,2.5-2.5v-6.2c0-1.4-1.1-2.5-2.5-2.5h-5v-6.2L34.6,17.5L34.6,17.5z M34.6,8.8V15h-5V8.8H34.6z
	 M27.1,8.8V15h-15V8.8H27.1z M4.6,15V8.8l0,0h5V15H4.6z M4.6,32.5v-6.2l0,0h5v6.2H4.6z M12.1,32.5v-6.2h15v6.2H12.1z M34.6,26.3v6.2
	h-5v-6.2H34.6z M27.1,23.8h-15v-6.2h15V23.8z"/>
</svg>
